<svg version="1.1" xmlns="http://www.w3.org/2000/svg" xmlns:xlink="http://www.w3.org/1999/xlink" width="492.9468" height="367.99963" viewBox="0,0,492.9468,367.99963"><g transform="translate(8.13237,3.71953)"><g data-paper-data="{&quot;isPaintingLayer&quot;:true}" fill-rule="nonzero" stroke-linejoin="miter" stroke-miterlimit="10" stroke-dasharray="" stroke-dashoffset="0" style="mix-blend-mode: normal"><path d="M-5.24532,364.28011v-367.99963h490.05976c0,0 0,73.28698 0,120.64328c0,67.80906 0,247.35635 0,247.35635z" fill="#f3f3f3" stroke="none" stroke-width="0" stroke-linecap="butt"/><path d="M-1.4893,27.51238v-29.56752h481.46514v29.56752z" fill="#e7e7e7" stroke="#414141" stroke-width="1" stroke-linecap="butt"/><path d="M22.52027,58.73454l-11.62791,-8.62716l13.50338,-10.12753" fill="none" stroke="#414141" stroke-width="1" stroke-linecap="round"/><path d="M40.89987,39.97984l12.75319,10.12753l-10.87772,8.25206" fill="none" stroke="#414141" stroke-width="1" stroke-linecap="round"/><path d="M80.28471,46.73154l-3.37584,3.75094l-3.00075,-4.12603" fill="none" stroke="#414141" stroke-width="1" stroke-linecap="round"/><path d="M100.16469,41.48022v18.0045" fill="none" stroke="#414141" stroke-width="1" stroke-linecap="round"/><path d="M93.0379,48.60701l7.12678,-9.75244l6.75169,7.87697" fill="none" stroke="#414141" stroke-width="1" stroke-linecap="round"/><path d="M117.25407,62.96724v-26.22622h352.18064v26.22622z" fill="#ffffff" stroke="#393939" stroke-width="2" stroke-linecap="butt"/><path d="M134.10449,46.72868c0,3.38152 -2.85315,6.12278 -6.37269,6.12278c-3.51954,0 -6.37269,-2.74126 -6.37269,-6.12278c0,-3.38152 2.85315,-6.12277 6.37269,-6.12277c3.51954,0 6.37269,2.74125 6.37269,6.12277z" fill="#ffffff" stroke="#393939" stroke-width="2" stroke-linecap="butt"/><path d="M132.35513,50.85219l8.99674,8.74683" fill="none" stroke="#393939" stroke-width="2" stroke-linecap="round"/><path d="M-7.88236,72.31342v-0.7606h490.58555v0.7606z" fill="#ffffff" stroke="#393939" stroke-width="0.5" stroke-linecap="butt"/></g></g></svg>